<?xml version="1.0" standalone="no"?>
<!DOCTYPE svg PUBLIC "-//W3C//DTD SVG 20010904//EN"
 "http://www.w3.org/TR/2001/REC-SVG-20010904/DTD/svg10.dtd">
<svg version="1.0" xmlns="http://www.w3.org/2000/svg"
 width="1000.000000pt" height="1000.000000pt" viewBox="0 0 1000.000000 1000.000000"
 preserveAspectRatio="xMidYMid meet">

<g transform="translate(0.000000,1000.000000) scale(0.100000,-0.100000)"
fill="#FFFBFE" stroke="none">
<path d="M4135 9980 c-508 -115 -881 -512 -961 -1019 -12 -82 -14 -269 -12
-1291 l3 -1195 227 -3 228 -2 3 1222 c3 1370 -3 1257 77 1423 93 192 279 346
490 404 127 35 354 46 724 32 206 -7 946 -11 2071 -11 1162 0 1771 -4 1814
-11 181 -29 359 -131 470 -271 177 -222 222 -520 117 -778 -66 -162 -205 -309
-371 -389 -179 -88 53 -81 -2589 -81 l-2346 0 0 -230 0 -230 2359 0 c2592 0
2433 -4 2623 60 300 101 558 320 700 596 97 189 139 356 139 559 0 336 -123
636 -356 870 -195 196 -450 321 -725 355 -56 7 -837 10 -2345 9 -2148 -1
-2264 -2 -2340 -19z"/>
<path d="M1210 8003 c-80 -8 -237 -46 -319 -78 -161 -61 -279 -136 -409 -260
-185 -176 -313 -408 -363 -660 -21 -104 -18 -358 5 -465 101 -467 431 -815
904 -952 l77 -22 3235 -6 3235 -5 73 -23 c188 -58 357 -188 451 -346 75 -125
119 -313 108 -450 -27 -311 -229 -566 -532 -673 l-80 -28 -1135 -5 c-1083 -5
-1137 -6 -1170 -24 -45 -24 -87 -63 -108 -101 -16 -27 -17 -148 -22 -1405 l-6
-1375 -22 -80 c-46 -167 -140 -313 -264 -410 -312 -244 -720 -228 -1005 39
-103 95 -175 214 -219 361 -18 57 -19 162 -21 2063 l-3 2002 -230 0 -230 0 0
-1967 c0 -1373 3 -1995 11 -2058 21 -170 84 -345 181 -503 72 -119 261 -307
380 -380 363 -224 804 -251 1176 -73 406 196 665 574 702 1028 6 76 10 578 10
1274 l0 1148 1013 3 1012 3 95 27 c473 133 806 486 907 958 21 101 24 339 4
440 -72 377 -300 692 -634 874 -125 68 -299 123 -432 136 -73 7 -1152 10
-3240 10 -3413 0 -3176 -4 -3317 56 -216 91 -380 280 -444 515 -28 101 -26
302 5 399 80 258 270 448 526 527 l90 27 748 4 747 3 0 230 0 229 -727 -2
c-401 0 -744 -3 -763 -5z"/>
</g>
</svg>
